<svg xmlns="http://www.w3.org/2000/svg" x="0px" y="0px"
width="100" height="100"
viewBox="0 0 172 172"
style=" fill:#000000;"><g fill="none" fill-rule="nonzero" stroke="none" stroke-width="1" stroke-linecap="butt" stroke-linejoin="miter" stroke-miterlimit="10" stroke-dasharray="" stroke-dashoffset="0" font-family="none" font-weight="none" font-size="none" text-anchor="none" style="mix-blend-mode: normal"><path d="M0,172v-172h172v172z" fill="none"></path><g fill="#000000"><path d="M86.03096,6.81808c-43.64328,0 -79.15096,35.50768 -79.15096,79.15096c0,43.64328 35.50768,79.15096 79.15096,79.15096c43.64328,0 79.15096,-35.50424 79.15096,-79.15096c0,-43.64672 -35.50768,-79.15096 -79.15096,-79.15096zM119.53312,121.54552c-0.99416,1.49296 -2.6316,2.29792 -4.3,2.29792c-0.98384,0 -1.978,-0.27864 -2.85864,-0.86688c-8.50712,-5.67256 -22.93448,-9.45656 -34.97448,-9.45312c-12.77616,0.00688 -22.35312,3.14416 -22.44944,3.17512c-2.69696,0.91504 -5.6244,-0.55728 -6.52568,-3.26112c-0.90128,-2.70384 0.56072,-5.62784 3.26456,-6.52568c0.45408,-0.15136 11.27976,-3.698 25.71056,-3.70488c12.04,-0.00688 28.78592,3.24048 40.70208,11.18344c2.3736,1.5824 3.01344,4.78504 1.43104,7.1552zM129.8256,100.42392c-1.118,1.79568 -3.04784,2.78296 -5.01896,2.78296c-1.0664,0 -2.14656,-0.28552 -3.11664,-0.8944c-15.42496,-9.61136 -31.27648,-11.6444 -44.93328,-11.524c-15.41808,0.1376 -27.74704,3.0788 -27.95688,3.14072c-3.12008,0.88752 -6.40184,-0.93568 -7.2928,-4.06952c-0.89096,-3.14072 0.93568,-6.40528 4.07296,-7.2928c0.95288,-0.27176 13.25776,-3.29896 30.10344,-3.44c15.3596,-0.12728 34.49976,2.0984 52.25704,13.16144c2.76232,1.72 3.612,5.3664 1.88512,8.1356zM140.094,75.72472c-1.28312,2.18096 -3.58104,3.39528 -5.94088,3.39528c-1.18336,0 -2.38048,-0.30616 -3.47784,-0.946c-17.97744,-10.55392 -39.8352,-12.79336 -55.0056,-12.814c-0.07224,0 -0.14448,0 -0.21672,0c-18.34552,0 -32.4736,3.22672 -32.61464,3.26112c-3.70832,0.84968 -7.39944,-1.44136 -8.25944,-5.1428c-0.86,-3.698 1.43448,-7.39256 5.13248,-8.256c0.6364,-0.14792 15.73112,-3.62232 35.7416,-3.62232c0.07912,0 0.15824,0 0.23736,0c16.8732,0.02408 41.31784,2.59032 61.9544,14.706c3.27488,1.9264 4.37224,6.14384 2.44928,9.41872z"></path></g></g></svg>